<?xml version="1.0" encoding="UTF-8" standalone="no"?>
<!-- Created with Inkscape (http://www.inkscape.org/) -->

<svg
   xmlns:dc="http://purl.org/dc/elements/1.1/"
   xmlns:cc="http://creativecommons.org/ns#"
   xmlns:rdf="http://www.w3.org/1999/02/22-rdf-syntax-ns#"
   xmlns:svg="http://www.w3.org/2000/svg"
   xmlns="http://www.w3.org/2000/svg"
   xmlns:sodipodi="http://sodipodi.sourceforge.net/DTD/sodipodi-0.dtd"
   xmlns:inkscape="http://www.inkscape.org/namespaces/inkscape"
   width="192"
   height="48"
   viewBox="0 0 192 48"
   id="svg2"
   version="1.1"
   inkscape:version="0.91 r13725"
   sodipodi:docname="logo.svg"
   inkscape:export-filename="/home/zlsa/projects/redditloop/pr/webdesign/website/assets/img/logo.png"
   inkscape:export-xdpi="90"
   inkscape:export-ydpi="90">
  <defs
     id="defs4" />
  <sodipodi:namedview
     id="base"
     pagecolor="#404040"
     bordercolor="#666666"
     borderopacity="1.0"
     inkscape:pageopacity="0"
     inkscape:pageshadow="2"
     inkscape:zoom="1"
     inkscape:cx="341.26658"
     inkscape:cy="22.838254"
     inkscape:document-units="px"
     inkscape:current-layer="layer1-5"
     showgrid="false"
     units="px"
     showguides="false"
     inkscape:guide-bbox="true"
     inkscape:snap-text-baseline="true"
     inkscape:window-width="1600"
     inkscape:window-height="859"
     inkscape:window-x="0"
     inkscape:window-y="20"
     inkscape:window-maximized="0"
     height="128px"
     inkscape:object-nodes="true"
     inkscape:snap-smooth-nodes="true"
     inkscape:snap-center="true"
     inkscape:snap-global="true">
    <inkscape:grid
       type="xygrid"
       id="grid3336"
       spacingx="8"
       spacingy="8" />
    <sodipodi:guide
       position="16,20"
       orientation="1,0"
       id="guide3362" />
    <inkscape:grid
       type="xygrid"
       id="grid3517"
       empspacing="1000000" />
  </sodipodi:namedview>
  <metadata
     id="metadata7">
    <rdf:RDF>
      <cc:Work
         rdf:about="">
        <dc:format>image/svg+xml</dc:format>
        <dc:type
           rdf:resource="http://purl.org/dc/dcmitype/StillImage" />
        <dc:title></dc:title>
      </cc:Work>
    </rdf:RDF>
  </metadata>
  <g
     inkscape:label="Layer 1"
     inkscape:groupmode="layer"
     id="layer1"
     transform="translate(0,-1004.3621)">
    <path
       style="color:#000000;font-style:normal;font-variant:normal;font-weight:normal;font-stretch:normal;font-size:medium;line-height:normal;font-family:sans-serif;text-indent:0;text-align:start;text-decoration:none;text-decoration-line:none;text-decoration-style:solid;text-decoration-color:#000000;letter-spacing:normal;word-spacing:normal;text-transform:none;direction:ltr;block-progression:tb;writing-mode:lr-tb;baseline-shift:baseline;text-anchor:start;white-space:normal;clip-rule:nonzero;display:inline;overflow:visible;visibility:visible;opacity:1;isolation:auto;mix-blend-mode:normal;color-interpolation:sRGB;color-interpolation-filters:linearRGB;solid-color:#000000;solid-opacity:1;fill:#ffffff;fill-opacity:1;fill-rule:evenodd;stroke:none;stroke-width:4;stroke-linecap:butt;stroke-linejoin:round;stroke-miterlimit:4;stroke-dasharray:none;stroke-dashoffset:0;stroke-opacity:1;color-rendering:auto;image-rendering:auto;shape-rendering:auto;text-rendering:auto;enable-background:accumulate"
       d="m 36,1007.3621 c -1.08032,0 -2.064405,0.6213 -2.531982,1.5952 l -6.71045,-1.2078 c -0.04904,-0.01 -0.09885,-0.013 -0.148681,-0.012 -0.330123,0.01 -0.616785,0.2292 -0.706055,0.5471 l -2.452148,8.7569 c -1.653372,-2.0131 -4.155893,-3.3047 -6.950684,-3.3047 -4.952787,0 -9,4.0471 -9,9 0,3.3078 1.8069977,6.2091 4.48169,7.7731 4.632493,2.8562 6.027015,6.7731 7.14331,14.7269 -0.75,0 -5.625,0 -4.875,3 l 9.75,0 9.75,0 c 0.75,-3 -4.125,-3 -4.875,-3 1.116295,-7.9538 2.510817,-11.8707 7.14331,-14.7269 2.674692,-1.564 4.48169,-4.4653 4.48169,-7.7731 0,-4.9529 -4.047213,-9 -9,-9 -2.444364,0 -4.664113,0.9891 -6.289306,2.5832 l 1.952636,-6.9741 6.038819,1.0869 c 0.133488,1.4459 1.345776,2.5525 2.797851,2.554 1.553299,0 2.812497,-1.2593 2.8125,-2.8125 -3e-6,-1.5533 -1.259201,-2.8125 -2.8125,-2.8125 z m -19.5,9.375 c 3.331467,0 6,2.6685 6,6 0,3.3315 -2.668533,6 -6,6 -3.331467,0 -6,-2.6685 -6,-6 0,-3.3315 2.668533,-6 6,-6 z m 15,0 c 3.331467,0 6,2.6685 6,6 0,3.3315 -2.668533,6 -6,6 -3.331467,0 -6,-2.6685 -6,-6 0,-3.3315 2.668533,-6 6,-6 z m -15,2.625 c -1.863959,0 -3.374996,1.5111 -3.375,3.375 4e-6,1.8639 1.511041,3.375 3.375,3.375 1.863959,0 3.374996,-1.5111 3.375,-3.375 -4e-6,-1.8639 -1.511041,-3.375 -3.375,-3.375 z m 15,0 c -1.863959,0 -3.374996,1.5111 -3.375,3.375 4e-6,1.8639 1.511041,3.375 3.375,3.375 1.863959,0 3.374996,-1.5111 3.375,-3.375 -4e-6,-1.8639 -1.511041,-3.375 -3.375,-3.375 z"
       id="path4305"
       inkscape:connector-curvature="0"
       sodipodi:nodetypes="ccccccsscccccccssccccscssssssssssssssssssss" />
    <g
       transform="translate(60,-2.1582031e-5)"
       id="layer1-5"
       inkscape:label="Layer 1">
      <text
         sodipodi:linespacing="125%"
         id="text4233"
         y="1040.3621"
         x="61.5"
         style="font-style:normal;font-variant:normal;font-weight:normal;font-stretch:normal;font-size:11.25px;line-height:125%;font-family:Roboto;-inkscape-font-specification:Roboto;text-align:center;letter-spacing:0px;word-spacing:0px;text-anchor:middle;fill:#ffffff;fill-opacity:1;stroke:none;stroke-width:1px;stroke-linecap:butt;stroke-linejoin:miter;stroke-opacity:1"
         xml:space="preserve"><tspan
           style="font-style:normal;font-variant:normal;font-weight:normal;font-stretch:normal;font-size:30px;font-family:'Encode Sans Compressed';-inkscape-font-specification:'Encode Sans Compressed';text-align:end;text-anchor:end;fill:#ffffff;fill-opacity:1"
           y="1040.3621"
           x="61.5"
           id="tspan4235"
           sodipodi:role="line">reddit</tspan></text>
      <text
         xml:space="preserve"
         style="font-style:normal;font-variant:normal;font-weight:normal;font-stretch:normal;font-size:11.25px;line-height:125%;font-family:Roboto;-inkscape-font-specification:Roboto;text-align:center;letter-spacing:0px;word-spacing:0px;text-anchor:middle;fill:#ffffff;fill-opacity:1;stroke:none;stroke-width:1px;stroke-linecap:butt;stroke-linejoin:miter;stroke-opacity:1"
         x="63"
         y="1040.3621"
         id="text4237"
         sodipodi:linespacing="125%"><tspan
           sodipodi:role="line"
           id="tspan4239"
           x="63"
           y="1040.3621"
           style="font-style:normal;font-variant:normal;font-weight:800;font-stretch:normal;font-size:30px;font-family:'Encode Sans Compressed';-inkscape-font-specification:'Encode Sans Compressed Ultra-Bold';text-align:start;text-anchor:start;fill:#ffffff;fill-opacity:1">loop</tspan></text>
    </g>
  </g>
</svg>
