<?xml version="1.0" encoding="UTF-8" standalone="no"?>
<!-- Created with Inkscape (http://www.inkscape.org/) -->

<svg
   xmlns:dc="http://purl.org/dc/elements/1.1/"
   xmlns:cc="http://creativecommons.org/ns#"
   xmlns:rdf="http://www.w3.org/1999/02/22-rdf-syntax-ns#"
   xmlns:svg="http://www.w3.org/2000/svg"
   xmlns="http://www.w3.org/2000/svg"
   xmlns:sodipodi="http://sodipodi.sourceforge.net/DTD/sodipodi-0.dtd"
   xmlns:inkscape="http://www.inkscape.org/namespaces/inkscape"
   width="48"
   height="48"
   viewBox="0 0 48 48"
   id="svg2"
   version="1.1"
   inkscape:version="0.91 r13725"
   sodipodi:docname="social-icons.svg"
   inkscape:export-filename="/home/zlsa/projects/redditloop/pr/webdesign/website/assets/images/social-icons.png"
   inkscape:export-xdpi="90"
   inkscape:export-ydpi="90">
  <defs
     id="defs4" />
  <sodipodi:namedview
     id="base"
     pagecolor="#ffffff"
     bordercolor="#666666"
     borderopacity="1.0"
     inkscape:pageopacity="0.0"
     inkscape:pageshadow="2"
     inkscape:zoom="11.313708"
     inkscape:cx="24.408003"
     inkscape:cy="25.089818"
     inkscape:document-units="px"
     inkscape:current-layer="layer1"
     showgrid="true"
     units="px"
     inkscape:window-width="1600"
     inkscape:window-height="859"
     inkscape:window-x="0"
     inkscape:window-y="20"
     inkscape:window-maximized="0"
     inkscape:object-nodes="true"
     inkscape:snap-smooth-nodes="true"
     inkscape:snap-global="true"
     inkscape:snap-text-baseline="true">
    <inkscape:grid
       type="xygrid"
       id="grid3336"
       empspacing="4" />
    <inkscape:grid
       type="xygrid"
       id="grid3338"
       spacingx="24"
       spacingy="24"
       empspacing="1"
       enabled="true" />
  </sodipodi:namedview>
  <metadata
     id="metadata7">
    <rdf:RDF>
      <cc:Work
         rdf:about="">
        <dc:format>image/svg+xml</dc:format>
        <dc:type
           rdf:resource="http://purl.org/dc/dcmitype/StillImage" />
        <dc:title></dc:title>
      </cc:Work>
    </rdf:RDF>
  </metadata>
  <g
     inkscape:label="Layer 1"
     inkscape:groupmode="layer"
     id="layer1"
     transform="translate(0,-1004.3621)">
    <path
       style="fill:#404040;fill-opacity:1;fill-rule:evenodd;stroke:none;stroke-width:1px;stroke-linecap:butt;stroke-linejoin:miter;stroke-opacity:1"
       d="m 1,1022.3622 c 9,7 19,-1 19,-9 -0.132583,-1.6131 1.977903,-4.0607 1.977903,-4.0607 0,0 -1.99741,0.1431 -2.977903,0.061 -3,-2 -8,-2 -8,4 -4,0 -8,-5 -8,-5 -1.7577553,2.6698 -0.8818177,4.539 1,6 -0.7978196,-0.2927 -1.9606132,-0.5738 -1.9606132,-0.5738 -0.2236066,0.8713 0.4603715,3.5118 3.101512,4.2527 l -1.8166147,0.083 c 0.4941025,1.7798 3.06882,3.2377 3.6757159,3.2377 0,0 -2,2 -6,1 z"
       id="path4172"
       inkscape:connector-curvature="0"
       sodipodi:nodetypes="ccccccccccccc" />
    <path
       style="opacity:1;fill:#404040;fill-opacity:1;fill-rule:nonzero;stroke:none;stroke-width:6;stroke-linecap:round;stroke-linejoin:round;stroke-miterlimit:4;stroke-dasharray:none;stroke-dashoffset:0;stroke-opacity:1"
       d="m 36,5 c -5,0 -10,0 -10,3 0.108471,2.667195 0.04949,5.332692 0,8 0,3 5,3 10,3 5,0 10,0 10,-3 0,-2.666667 0,-5.333333 0,-8 C 46,5 41,5 36,5 Z"
       transform="translate(0,1004.3621)"
       id="rect4185"
       inkscape:connector-curvature="0"
       sodipodi:nodetypes="sccsccs" />
    <path
       style="fill:#ffffff;fill-rule:evenodd;stroke:none;stroke-width:1px;stroke-linecap:butt;stroke-linejoin:miter;stroke-opacity:1;fill-opacity:1"
       d="m 34,1013.3621 0,6 5,-3 z"
       id="path4190"
       inkscape:connector-curvature="0" />
    <text
       xml:space="preserve"
       style="font-style:normal;font-variant:normal;font-weight:normal;font-stretch:normal;font-size:30px;line-height:125%;font-family:Roboto;-inkscape-font-specification:Roboto;text-align:center;letter-spacing:0px;word-spacing:0px;text-anchor:middle;fill:#404040;fill-opacity:1;stroke:none;stroke-width:1px;stroke-linecap:butt;stroke-linejoin:miter;stroke-opacity:1"
       x="12"
       y="1046.3621"
       id="text4207"
       sodipodi:linespacing="125%"><tspan
         sodipodi:role="line"
         id="tspan4209"
         x="12"
         y="1046.3621"
         style="font-style:normal;font-variant:normal;font-weight:800;font-stretch:normal;font-size:17.5px;font-family:'Encode Sans Compressed';-inkscape-font-specification:'Encode Sans Compressed Ultra-Bold';fill:#404040;fill-opacity:1">/r/</tspan></text>
  </g>
</svg>
